<svg fill="#40C057" xmlns="http://www.w3.org/2000/svg"  viewBox="0 0 48 48" width="24px" height="24px"><path d="M 24 3 C 12.413858 3 3 12.413866 3 24 C 3 35.586134 12.413858 45 24 45 C 35.586142 45 45 35.586134 45 24 C 45 12.413866 35.586142 3 24 3 z M 24 5 C 34.505263 5 43 13.494744 43 24 C 43 34.505256 34.505263 43 24 43 C 13.494737 43 5 34.505256 5 24 C 5 13.494744 13.494737 5 24 5 z M 33.003906 15.988281 A 1.0001 1.0001 0 0 0 32.181641 16.425781 L 22.292969 30.552734 L 15.625 25.21875 A 1.0004882 1.0004882 0 1 0 14.375 26.78125 L 21.875 32.78125 A 1.0001 1.0001 0 0 0 23.318359 32.574219 L 33.818359 17.574219 A 1.0001 1.0001 0 0 0 33.003906 15.988281 z"/></svg>