<svg version="1.1" id="Layer_1" xmlns="http://www.w3.org/2000/svg" xmlns:xlink="http://www.w3.org/1999/xlink" x="0px" y="0px"
	 width="100%" viewBox="0 0 292 234" enable-background="new 0 0 292 234" xml:space="preserve">

<path fill="#223643" opacity="1.000000" stroke="none" 
	d="
M205.500977,152.999649 
	C205.486389,125.343956 205.465622,98.188278 205.462570,71.032600 
	C205.461792,64.084320 208.005692,61.005234 213.636490,61.032295 
	C219.098907,61.058548 221.993317,64.503448 222.004318,71.046593 
	C222.077698,114.694710 222.144318,158.342834 222.212234,201.990952 
	C222.214050,203.157150 222.261093,204.326569 222.192947,205.488968 
	C221.892929,210.607300 218.897675,213.840958 214.269333,214.092026 
	C209.437897,214.354095 205.683563,211.242020 205.403076,205.971497 
	C205.067154,199.659225 205.300888,193.315430 205.325577,186.985428 
	C205.369125,175.823456 205.441223,164.661575 205.500977,152.999649 
z"/>
<path fill="#233744" opacity="1.000000" stroke="none" 
	d="
M68.172745,174.005844 
	C68.121498,172.283691 68.070259,170.561539 68.485359,168.308838 
	C69.285172,167.251083 69.906403,166.725693 69.909744,166.196411 
	C69.980568,154.967010 70.020241,143.736801 69.919144,132.508087 
	C69.911598,131.669586 68.799164,130.841019 68.200363,130.007843 
	C68.131248,113.049202 67.992729,96.090378 68.038643,79.132050 
	C68.051140,74.517784 71.489647,71.229332 75.851646,71.012375 
	C80.321083,70.790070 84.015144,74.116791 84.522667,78.855560 
	C84.610901,79.679306 84.587318,80.516846 84.587051,81.348000 
	C84.573784,122.094170 84.545761,162.840347 84.557220,203.586517 
	C84.558540,208.289902 83.375130,212.306686 78.403694,213.771301 
	C73.267670,215.284424 69.733009,212.747284 68.297180,206.053253 
	C69.099846,197.711929 69.753220,190.051117 69.897118,182.380737 
	C69.949272,179.600876 68.783035,176.798141 68.172745,174.005844 
z"/>
<path fill="#609775" opacity="1.000000" stroke="none" 
	d="
M138.231781,52.006214 
	C138.136154,50.521782 138.040527,49.037350 137.890213,46.703865 
	C135.046677,49.991291 132.711594,52.878086 130.177856,55.578495 
	C125.832130,60.210087 121.113350,60.805336 116.954773,57.425102 
	C113.232658,54.399643 112.518944,48.982128 115.994957,44.389648 
	C123.518875,34.449097 131.195084,24.608189 139.193512,15.048204 
	C144.069687,9.220044 150.588333,9.384768 155.406937,15.234241 
	C163.226318,24.726460 170.816544,34.412201 178.324081,44.154503 
	C181.894379,48.787582 181.185562,54.063637 177.014008,57.398460 
	C173.166290,60.474403 168.016907,59.887852 164.169098,55.763058 
	C161.922470,53.354725 159.891312,50.745407 156.870605,47.169998 
	C156.634171,51.562424 156.456177,54.869190 155.818192,58.532791 
	C153.428513,55.232170 150.545151,53.989532 146.582962,55.790672 
	C145.509308,53.711628 144.579575,51.911308 143.729507,50.265232 
	C141.562592,50.951435 139.897186,51.478825 138.231781,52.006214 
z"/>
<path fill="#1F3340" opacity="1.000000" stroke="none" 
	d="
M112.032051,191.997238 
	C112.039558,165.849869 112.030739,140.201874 112.066559,114.553917 
	C112.074844,108.621109 114.943336,105.354416 120.073318,105.192390 
	C125.093628,105.033813 128.207260,108.376312 128.228180,114.291862 
	C128.285919,130.613083 128.239258,146.934662 128.240768,163.256088 
	C128.241989,176.413162 128.257751,189.570221 128.258392,202.727295 
	C128.258774,210.832947 126.038025,213.951614 120.284134,213.965088 
	C114.323219,213.979050 112.056145,210.965057 112.037750,202.988968 
	C112.029686,199.491531 112.033524,195.994064 112.032051,191.997238 
z"/>
<path fill="#1E3340" opacity="1.000000" stroke="none" 
	d="
M170.069992,204.009140 
	C170.044312,173.861740 169.981430,143.714279 170.028717,113.567001 
	C170.036804,108.406021 173.362183,105.168129 177.997360,105.227425 
	C182.724136,105.287888 186.070648,108.785667 186.096481,114.081360 
	C186.179382,131.074005 186.157333,148.067215 186.165665,165.060196 
	C186.172119,178.221420 186.111771,191.382965 186.190002,204.543716 
	C186.216721,209.038742 184.688446,212.519348 180.190598,213.730927 
	C175.568344,214.976028 172.024521,213.279221 170.308640,208.221130 
	C170.349106,207.517944 170.228241,207.265854 170.107391,207.013779 
	C170.034058,206.562653 169.960739,206.111511 170.136612,205.237000 
	C170.446686,204.709335 170.583786,204.548386 170.555511,204.510330 
	C170.417953,204.325226 170.236145,204.173004 170.069992,204.009140 
z"/>
<path fill="#233743" opacity="1.000000" stroke="none" 
	d="
M44.958855,145.043213 
	C44.940773,165.185623 44.952652,184.835724 44.885109,204.485535 
	C44.864178,210.575546 41.712337,214.070786 36.502022,214.104584 
	C31.542496,214.136734 28.149939,211.175873 28.131376,206.199387 
	C28.045662,183.219238 28.050793,160.238297 28.154217,137.258224 
	C28.178059,131.960968 31.692299,128.487900 36.404419,128.467865 
	C41.239925,128.447327 44.747540,132.141525 44.943588,137.557251 
	C45.027870,139.885559 44.958019,142.219452 44.958855,145.043213 
z"/>
<path fill="#1F3441" opacity="1.000000" stroke="none" 
	d="
M261.000000,157.000839 
	C261.000732,172.969238 261.016602,188.437851 260.994995,203.906418 
	C260.985870,210.438324 258.009064,213.952438 252.609039,213.935623 
	C247.476013,213.919647 244.670395,210.534409 244.680908,204.065582 
	C244.714722,183.274582 244.782791,162.483536 244.907730,141.692917 
	C244.944458,135.583603 247.719879,132.641693 253.055527,132.687088 
	C258.116333,132.730148 260.938110,136.018829 260.989655,142.030472 
	C261.030975,146.853668 260.999298,151.677490 261.000000,157.000839 
z"/>
<path fill="#5C936F" opacity="1.000000" stroke="none" 
	d="
M138.159225,52.469471 
	C139.897186,51.478825 141.562592,50.951435 143.729507,50.265232 
	C144.579575,51.911308 145.509308,53.711628 146.582962,55.790672 
	C150.545151,53.989532 153.428513,55.232170 155.723679,58.944080 
	C156.174515,70.099846 156.386627,81.202248 156.291809,92.302025 
	C156.244370,97.856133 152.577911,101.797646 147.777405,102.201996 
	C142.750595,102.625412 139.444839,99.728790 138.284363,93.253479 
	C138.653397,92.451454 138.555618,92.194954 138.180008,92.019142 
	C138.148895,78.990334 138.117783,65.961533 138.159225,52.469471 
z"/>
<path fill="#1A2C34" opacity="1.000000" stroke="none" 
	d="
M68.127945,130.471222 
	C68.799164,130.841019 69.911598,131.669586 69.919144,132.508087 
	C70.020241,143.736801 69.980568,154.967010 69.909744,166.196411 
	C69.906403,166.725693 69.285172,167.251083 68.569717,167.885498 
	C68.143661,155.639999 68.099594,143.287292 68.127945,130.471222 
z"/>
<path fill="#1A2C34" opacity="1.000000" stroke="none" 
	d="
M68.101486,174.469559 
	C68.783035,176.798141 69.949272,179.600876 69.897118,182.380737 
	C69.753220,190.051117 69.099846,197.711929 68.364182,205.679169 
	C68.063683,195.632294 68.046951,185.282791 68.101486,174.469559 
z"/>
<path fill="#609775" opacity="1.000000" stroke="none" 
	d="
M138.125595,92.259262 
	C138.555618,92.194954 138.653397,92.451454 138.336121,92.881790 
	C138.198914,92.974945 138.071182,92.499382 138.125595,92.259262 
z"/>
<path fill="#162630" opacity="1.000000" stroke="none" 
	d="
M169.999542,204.253998 
	C170.236145,204.173004 170.417953,204.325226 170.555511,204.510330 
	C170.583786,204.548386 170.446686,204.709335 170.225754,204.901733 
	C170.020157,204.826157 169.974625,204.662506 169.999542,204.253998 
z"/>
<path fill="#162630" opacity="1.000000" stroke="none" 
	d="
M170.064789,207.257401 
	C170.228241,207.265854 170.349106,207.517944 170.328964,207.868546 
	C170.187973,207.967072 170.022202,207.501022 170.064789,207.257401 
z"/>
</svg>